<svg xmlns="http://www.w3.org/2000/svg" width="27.167" height="27.167" viewBox="0 0 27.167 27.167"><defs><style>.a{fill:#763ee8;}</style></defs><path class="a" d="M23.983,2.122H22.71V0H20.587V2.122H6.58V0H4.457V2.122H3.184A3.187,3.187,0,0,0,0,5.306V23.983a3.187,3.187,0,0,0,3.184,3.184h20.8a3.187,3.187,0,0,0,3.184-3.184V5.306A3.187,3.187,0,0,0,23.983,2.122Zm1.061,21.861a1.062,1.062,0,0,1-1.061,1.061H3.184a1.062,1.062,0,0,1-1.061-1.061V9.975H25.045Zm0-16.13H2.122V5.306A1.062,1.062,0,0,1,3.184,4.245H4.457V6.367H6.58V4.245H20.587V6.367H22.71V4.245h1.273a1.062,1.062,0,0,1,1.061,1.061Z"/><g transform="translate(4.134 12.107)"><g transform="translate(0 0)"><rect class="a" width="2" height="2" transform="translate(-0.467 -0.44)"/></g></g><g transform="translate(8.564 12.107)"><g transform="translate(0 0)"><rect class="a" width="2" height="2" transform="translate(0.103 -0.44)"/></g></g><g transform="translate(12.993 12.107)"><g transform="translate(0 0)"><rect class="a" width="2" height="2" transform="translate(-0.326 -0.44)"/></g></g><g transform="translate(16.537 12.107)"><g transform="translate(0 0)"><rect class="a" width="2" height="2" transform="translate(0.13 -0.44)"/></g></g><g transform="translate(20.966 12.107)"><g transform="translate(0 0)"><rect class="a" width="3" height="2" transform="translate(-0.299 -0.44)"/></g></g><g transform="translate(4.134 16.536)"><g transform="translate(0 0)"><rect class="a" width="2" height="2" transform="translate(-0.467 0.13)"/></g></g><g transform="translate(8.564 16.536)"><g transform="translate(0 0)"><rect class="a" width="2" height="2" transform="translate(0.103 0.13)"/></g></g><g transform="translate(12.993 16.536)"><g transform="translate(0 0)"><rect class="a" width="2" height="2" transform="translate(-0.326 0.13)"/></g></g><g transform="translate(16.537 16.536)"><g transform="translate(0 0)"><rect class="a" width="2" height="2" transform="translate(0.13 0.13)"/></g></g><g transform="translate(4.134 20.966)"><g transform="translate(0 0)"><rect class="a" width="2" height="2" transform="translate(-0.467 -0.299)"/></g></g><g transform="translate(8.564 20.966)"><g transform="translate(0 0)"><rect class="a" width="2" height="2" transform="translate(0.103 -0.299)"/></g></g><g transform="translate(12.993 20.966)"><g transform="translate(0 0)"><rect class="a" width="2" height="2" transform="translate(-0.326 -0.299)"/></g></g><g transform="translate(16.537 20.966)"><g transform="translate(0 0)"><rect class="a" width="2" height="2" transform="translate(0.13 -0.299)"/></g></g><g transform="translate(20.966 16.536)"><g transform="translate(0 0)"><rect class="a" width="3" height="2" transform="translate(-0.299 0.13)"/></g></g></svg>