<svg xmlns="http://www.w3.org/2000/svg" width="19" height="19" viewBox="0 0 19 19"><defs><style>.a{fill:#fff;stroke:#fff;}</style></defs><g transform="translate(0.5 0.5)"><path class="a" d="M264,66h1.286v3.857H264Z" transform="translate(-253.714 -63.429)"/><path class="a" d="M17.812,4.045,13.955.188A.642.642,0,0,0,13.5,0H.643A.642.642,0,0,0,0,.643V17.357A.642.642,0,0,0,.643,18H17.357A.642.642,0,0,0,18,17.357V4.5A.643.643,0,0,0,17.812,4.045ZM5.143,1.286h7.714V7.714H5.143ZM16.714,16.714H1.286V1.286H3.857V8.357A.642.642,0,0,0,4.5,9h9a.642.642,0,0,0,.643-.643V2.195l2.571,2.571Z"/></g></svg>